<svg width="60" height="60" viewBox="0 0 60 60" fill="none" xmlns="http://www.w3.org/2000/svg">
<path d="M3.75 50.625C3.75 51.1223 3.94754 51.5992 4.29917 51.9508C4.65081 52.3025 5.12772 52.5 5.625 52.5H19.8637C20.2004 52.5002 20.5309 52.4098 20.8206 52.2383C21.1103 52.0667 21.3484 51.8203 21.51 51.525L41.25 11.25H54.375C54.8723 11.25 55.3492 11.0525 55.7008 10.7008C56.0525 10.3492 56.25 9.87228 56.25 9.375C56.25 8.87772 56.0525 8.40081 55.7008 8.04918C55.3492 7.69754 54.8723 7.5 54.375 7.5H40.1363C39.7996 7.49975 39.4691 7.59016 39.1794 7.76171C38.8897 7.93327 38.6516 8.17966 38.49 8.475L18.75 48.75H5.625C5.12772 48.75 4.65081 48.9475 4.29917 49.2992C3.94754 49.6508 3.75 50.1277 3.75 50.625V50.625ZM41.25 50.625C41.25 51.1223 41.4475 51.5992 41.7992 51.9508C42.1508 52.3025 42.6277 52.5 43.125 52.5H54.375C54.8723 52.5 55.3492 52.3025 55.7008 51.9508C56.0525 51.5992 56.25 51.1223 56.25 50.625C56.25 50.1277 56.0525 49.6508 55.7008 49.2992C55.3492 48.9475 54.8723 48.75 54.375 48.75H43.125C42.6277 48.75 42.1508 48.9475 41.7992 49.2992C41.4475 49.6508 41.25 50.1277 41.25 50.625Z" fill="#E68615"/>
</svg>
