<svg width="60" height="60" viewBox="0 0 60 60" fill="none" xmlns="http://www.w3.org/2000/svg">
<g clip-path="url(#clip0)">
<path d="M45.6225 33.525C43.6575 37.5075 40.995 41.475 38.2725 45.0375C35.6899 48.3961 32.9284 51.6132 30 54.675C27.0716 51.6133 24.3101 48.3961 21.7275 45.0375C19.005 41.475 16.3425 37.5075 14.3775 33.525C12.39 29.5012 11.25 25.7325 11.25 22.5C11.25 17.5272 13.2254 12.7581 16.7417 9.24175C20.2581 5.72544 25.0272 3.75 30 3.75C34.9728 3.75 39.7419 5.72544 43.2583 9.24175C46.7746 12.7581 48.75 17.5272 48.75 22.5C48.75 25.7325 47.6063 29.5012 45.6225 33.525ZM30 60C30 60 52.5 38.6775 52.5 22.5C52.5 16.5326 50.1295 10.8097 45.9099 6.5901C41.6903 2.37053 35.9674 0 30 0C24.0326 0 18.3097 2.37053 14.0901 6.5901C9.87053 10.8097 7.5 16.5326 7.5 22.5C7.5 38.6775 30 60 30 60Z" fill="#E68615"/>
<path d="M30 30C28.0109 30 26.1032 29.2098 24.6967 27.8033C23.2902 26.3968 22.5 24.4891 22.5 22.5C22.5 20.5109 23.2902 18.6032 24.6967 17.1967C26.1032 15.7902 28.0109 15 30 15C31.9891 15 33.8968 15.7902 35.3033 17.1967C36.7098 18.6032 37.5 20.5109 37.5 22.5C37.5 24.4891 36.7098 26.3968 35.3033 27.8033C33.8968 29.2098 31.9891 30 30 30ZM30 33.75C32.9837 33.75 35.8452 32.5647 37.955 30.455C40.0647 28.3452 41.25 25.4837 41.25 22.5C41.25 19.5163 40.0647 16.6548 37.955 14.545C35.8452 12.4353 32.9837 11.25 30 11.25C27.0163 11.25 24.1548 12.4353 22.045 14.545C19.9353 16.6548 18.75 19.5163 18.75 22.5C18.75 25.4837 19.9353 28.3452 22.045 30.455C24.1548 32.5647 27.0163 33.75 30 33.75Z" fill="#E68615"/>
</g>
<defs>
<clipPath id="clip0">
<rect width="60" height="60" fill="white"/>
</clipPath>
</defs>
</svg>
