<svg width="335" height="100" viewBox="0 0 335 100" fill="none" xmlns="http://www.w3.org/2000/svg">
<path d="M127.323 0L84.608 32.155L73.599 15.249L68.634 22.87L77.945 37.17L63.674 47.913L49.395 37.165L68.638 7.627L73.6 15.248L83.527 0.002H63.674L42.739 32.155L0.0249939 0L3.52099 13.049L56.754 53.122L49.835 58.331L7.01799 26.099L10.514 39.149L42.916 63.539L35.996 68.748L14.011 52.198L17.508 65.248L35.996 79.165L63.674 58.331L91.351 79.165L109.839 65.248L113.336 52.198L91.351 68.748L84.432 63.539L116.833 39.149L120.329 26.099L77.512 58.331L70.593 53.122L123.826 13.049L127.323 0Z" fill="black"/>
<path d="M63.674 68.748L42.916 84.374L49.835 89.583L63.674 79.165L77.512 89.583L84.432 84.374L63.674 68.748Z" fill="black"/>
<path d="M56.754 94.791L63.674 100L70.593 94.791L63.674 89.583L56.754 94.791Z" fill="black"/>
<path d="M153.102 39.06V0H176.769V7.207H160.365V15.73H174.311V22.936H160.365V31.854H176.769V39.06H153.102Z" fill="black"/>
<path d="M192.429 39.06V0H199.691V31.854H216.096V39.06H192.429Z" fill="black"/>
<path d="M230.351 39.06V31.854H238.554V7.207H230.351V0H254.018V7.207H245.816V31.854H254.018V39.06H230.351Z" fill="black"/>
<path d="M277.374 39.06V7.207H266.42V0H295.816V7.207H284.862V39.06H277.374Z" fill="black"/>
<path d="M308.837 39.06V0H332.504V7.207H316.099V15.73H330.045V22.936H316.099V31.854H332.504V39.06H308.837Z" fill="black"/>
<path d="M153.102 94.872V55.811H176.769V63.018H160.365V71.541H174.311V78.748H160.365V87.665H176.769V94.872H153.102Z" fill="black"/>
<path d="M212.032 94.872L203.251 80.935L194.47 94.872H186.19L199.139 74.668L187.034 55.811H195.313L203.251 68.285L211.189 55.811H219.468L207.363 74.668L220.312 94.872H212.032Z" fill="black"/>
<path d="M228.834 94.872V55.811H244.769C254.706 55.811 258.232 63.064 258.232 69.274C258.232 75.511 254.706 82.793 244.769 82.793H236.1V94.872H228.834ZM236.1 75.587H244.771C246.424 75.5661 248.002 74.8949 249.164 73.7186C250.325 72.5422 250.977 70.9557 250.977 69.3025C250.977 67.6493 250.325 66.0628 249.164 64.8865C248.002 63.7101 246.424 63.0389 244.771 63.018H236.1V75.587Z" fill="black"/>
<path d="M269.903 94.872V55.811H293.57V63.018H277.165V71.541H291.111V78.748H277.165V87.665H293.57V94.872H269.903Z" fill="black"/>
<path d="M305.578 94.872V55.811H320.278C329.345 55.811 334.978 61.336 334.978 70.229V80.454C334.978 89.347 329.347 94.872 320.278 94.872H305.578ZM312.841 87.665H320.277C324.725 87.665 327.713 84.765 327.713 80.454V70.229C327.713 65.916 324.725 63.018 320.277 63.018H312.841V87.665Z" fill="black"/>
</svg>
