<svg width="371" height="118" viewBox="0 0 371 118" fill="none" xmlns="http://www.w3.org/2000/svg">
<path d="M187.283 32.936L181.955 38.408V47H175.715V13.4H181.955V30.632L198.563 13.4H205.571L191.459 28.424L206.435 47H199.139L187.283 32.936ZM222.789 35.144V47H216.549V35.24L203.349 13.4H210.021L219.861 29.768L229.797 13.4H235.941L222.789 35.144ZM261.543 47L254.679 37.16C254.391 37.192 253.959 37.208 253.383 37.208H245.799V47H239.559V13.4H253.383C256.295 13.4 258.823 13.88 260.967 14.84C263.143 15.8 264.807 17.176 265.959 18.968C267.111 20.76 267.687 22.888 267.687 25.352C267.687 27.88 267.063 30.056 265.815 31.88C264.599 33.704 262.839 35.064 260.535 35.96L268.263 47H261.543ZM261.399 25.352C261.399 23.208 260.695 21.56 259.287 20.408C257.879 19.256 255.815 18.68 253.095 18.68H245.799V32.072H253.095C255.815 32.072 257.879 31.496 259.287 30.344C260.695 29.16 261.399 27.496 261.399 25.352ZM297.612 29.816H303.516V43.208C301.788 44.584 299.772 45.64 297.468 46.376C295.164 47.112 292.796 47.48 290.364 47.48C286.94 47.48 283.852 46.744 281.1 45.272C278.348 43.768 276.188 41.704 274.62 39.08C273.052 36.456 272.268 33.496 272.268 30.2C272.268 26.904 273.052 23.944 274.62 21.32C276.188 18.696 278.348 16.648 281.1 15.176C283.884 13.672 287.004 12.92 290.46 12.92C293.276 12.92 295.836 13.384 298.14 14.312C300.444 15.24 302.38 16.6 303.948 18.392L300.012 22.232C297.452 19.672 294.364 18.392 290.748 18.392C288.38 18.392 286.268 18.888 284.412 19.88C282.588 20.872 281.148 22.264 280.092 24.056C279.068 25.848 278.556 27.896 278.556 30.2C278.556 32.44 279.068 34.456 280.092 36.248C281.148 38.04 282.588 39.448 284.412 40.472C286.268 41.496 288.364 42.008 290.7 42.008C293.324 42.008 295.628 41.432 297.612 40.28V29.816ZM326.242 35.144V47H320.002V35.24L306.802 13.4H313.474L323.314 29.768L333.25 13.4H339.394L326.242 35.144ZM369.593 41.72V47H340.937V42.824L360.713 18.68H341.273V13.4H368.969V17.576L349.193 41.72H369.593ZM196.336 77.68H185.2V72.4H213.712V77.68H202.576V106H196.336V77.68ZM233.622 106.48C230.198 106.48 227.11 105.744 224.358 104.272C221.606 102.768 219.446 100.704 217.878 98.08C216.31 95.424 215.526 92.464 215.526 89.2C215.526 85.936 216.31 82.992 217.878 80.368C219.446 77.712 221.606 75.648 224.358 74.176C227.11 72.672 230.198 71.92 233.622 71.92C237.046 71.92 240.134 72.672 242.886 74.176C245.638 75.648 247.798 77.696 249.366 80.32C250.934 82.944 251.718 85.904 251.718 89.2C251.718 92.496 250.934 95.456 249.366 98.08C247.798 100.704 245.638 102.768 242.886 104.272C240.134 105.744 237.046 106.48 233.622 106.48ZM233.622 101.008C235.862 101.008 237.878 100.512 239.67 99.52C241.462 98.496 242.87 97.088 243.894 95.296C244.918 93.472 245.43 91.44 245.43 89.2C245.43 86.96 244.918 84.944 243.894 83.152C242.87 81.328 241.462 79.92 239.67 78.928C237.878 77.904 235.862 77.392 233.622 77.392C231.382 77.392 229.366 77.904 227.574 78.928C225.782 79.92 224.374 81.328 223.35 83.152C222.326 84.944 221.814 86.96 221.814 89.2C221.814 91.44 222.326 93.472 223.35 95.296C224.374 97.088 225.782 98.496 227.574 99.52C229.366 100.512 231.382 101.008 233.622 101.008ZM272.78 106.48C268.14 106.48 264.524 105.184 261.932 102.592C259.34 99.968 258.044 96.224 258.044 91.36V72.4H264.284V91.12C264.284 97.712 267.132 101.008 272.828 101.008C278.492 101.008 281.324 97.712 281.324 91.12V72.4H287.468V91.36C287.468 96.224 286.172 99.968 283.58 102.592C281.02 105.184 277.42 106.48 272.78 106.48ZM318.191 106L311.327 96.16C311.039 96.192 310.607 96.208 310.031 96.208H302.447V106H296.207V72.4H310.031C312.943 72.4 315.471 72.88 317.615 73.84C319.791 74.8 321.455 76.176 322.607 77.968C323.759 79.76 324.335 81.888 324.335 84.352C324.335 86.88 323.711 89.056 322.463 90.88C321.247 92.704 319.487 94.064 317.183 94.96L324.911 106H318.191ZM318.047 84.352C318.047 82.208 317.343 80.56 315.935 79.408C314.527 78.256 312.463 77.68 309.743 77.68H302.447V91.072H309.743C312.463 91.072 314.527 90.496 315.935 89.344C317.343 88.16 318.047 86.496 318.047 84.352ZM341.733 106.48C339.141 106.48 336.629 106.112 334.197 105.376C331.797 104.64 329.893 103.664 328.485 102.448L330.645 97.6C332.021 98.688 333.701 99.584 335.685 100.288C337.701 100.96 339.717 101.296 341.733 101.296C344.229 101.296 346.085 100.896 347.301 100.096C348.549 99.296 349.173 98.24 349.173 96.928C349.173 95.968 348.821 95.184 348.117 94.576C347.445 93.936 346.581 93.44 345.525 93.088C344.469 92.736 343.029 92.336 341.205 91.888C338.645 91.28 336.565 90.672 334.965 90.064C333.397 89.456 332.037 88.512 330.885 87.232C329.765 85.92 329.205 84.16 329.205 81.952C329.205 80.096 329.701 78.416 330.693 76.912C331.717 75.376 333.237 74.16 335.253 73.264C337.301 72.368 339.797 71.92 342.741 71.92C344.789 71.92 346.805 72.176 348.789 72.688C350.773 73.2 352.485 73.936 353.925 74.896L351.957 79.744C350.485 78.88 348.949 78.224 347.349 77.776C345.749 77.328 344.197 77.104 342.693 77.104C340.229 77.104 338.389 77.52 337.173 78.352C335.989 79.184 335.397 80.288 335.397 81.664C335.397 82.624 335.733 83.408 336.405 84.016C337.109 84.624 337.989 85.104 339.045 85.456C340.101 85.808 341.541 86.208 343.365 86.656C345.861 87.232 347.909 87.84 349.509 88.48C351.109 89.088 352.469 90.032 353.589 91.312C354.741 92.592 355.317 94.32 355.317 96.496C355.317 98.352 354.805 100.032 353.781 101.536C352.789 103.04 351.269 104.24 349.221 105.136C347.173 106.032 344.677 106.48 341.733 106.48Z" fill="#E68615"/>
<path d="M124.414 14.4264C124.414 14.4264 104.805 32.9534 76.9589 53.0975C46.2749 78.2689 16.0942 96.5763 16.0942 96.5763C16.0942 96.5763 39.362 74.4108 71.9547 49.317C99.3517 26.8139 124.414 14.4264 124.414 14.4264Z" fill="#E68615"/>
<path d="M136.412 23.8837C136.412 23.8837 116.803 42.4107 88.9564 62.5548C58.2724 87.7263 28.0918 106.034 28.0918 106.034C28.0918 106.034 51.3595 83.8681 83.9523 58.7743C111.349 36.2712 136.412 23.8837 136.412 23.8837Z" fill="#E68615"/>
<path d="M112.227 5.18461C112.227 5.18461 92.6171 23.7116 64.771 43.8557C34.087 69.0272 3.90631 87.3345 3.90631 87.3345C3.90631 87.3345 27.174 65.169 59.7668 40.0752C87.1638 17.5721 112.227 5.18461 112.227 5.18461Z" fill="#E68615"/>
<path d="M14.768 10.2435C14.768 10.2435 39.495 26.4843 66.6337 49.198C100.386 74.3948 125.239 98.8133 125.239 98.8133C125.239 98.8133 95.6631 79.5323 61.9375 52.8611C31.7648 30.3619 14.768 10.2435 14.768 10.2435Z" fill="#E68615"/>
<path d="M26.5361 1.48352C26.5361 1.48352 51.2631 17.7243 78.4018 40.438C112.154 65.6348 137.007 90.0532 137.007 90.0532C137.007 90.0532 107.431 70.7723 73.7056 44.101C43.5329 21.6019 26.5361 1.48352 26.5361 1.48352Z" fill="#E68615"/>
<path d="M3.28614 19.1631C3.28614 19.1631 28.0132 35.4039 55.1518 58.1176C88.9038 83.3145 113.757 107.733 113.757 107.733C113.757 107.733 84.1812 88.4519 50.4557 61.7807C20.2829 39.2815 3.28614 19.1631 3.28614 19.1631Z" fill="#E68615"/>
<path d="M124.986 56.1506C124.59 83.0917 99.7013 104.457 69.3956 103.87C39.0899 103.284 14.8434 80.9689 15.2394 54.0278C15.6355 27.0867 40.5242 5.72185 70.8299 6.30805C101.136 6.89425 125.382 29.2095 124.986 56.1506ZM18.6996 54.0948C18.3285 79.337 41.0461 100.245 69.4408 100.794C97.8355 101.344 121.155 81.326 121.526 56.0837C121.897 30.8414 99.1793 9.93328 70.7846 9.38405C42.3899 8.83482 19.0707 28.8525 18.6996 54.0948Z" fill="#E68615"/>
</svg>
