<svg width="60" height="60" viewBox="0 0 60 60" fill="none" xmlns="http://www.w3.org/2000/svg">
<path d="M41.25 24.375C41.25 23.8777 41.4475 23.4008 41.7992 23.0492C42.1508 22.6975 42.6277 22.5 43.125 22.5H46.875C47.3723 22.5 47.8492 22.6975 48.2008 23.0492C48.5525 23.4008 48.75 23.8777 48.75 24.375V28.125C48.75 28.6223 48.5525 29.0992 48.2008 29.4508C47.8492 29.8025 47.3723 30 46.875 30H43.125C42.6277 30 42.1508 29.8025 41.7992 29.4508C41.4475 29.0992 41.25 28.6223 41.25 28.125V24.375ZM30 24.375C30 23.8777 30.1975 23.4008 30.5492 23.0492C30.9008 22.6975 31.3777 22.5 31.875 22.5H35.625C36.1223 22.5 36.5992 22.6975 36.9508 23.0492C37.3025 23.4008 37.5 23.8777 37.5 24.375V28.125C37.5 28.6223 37.3025 29.0992 36.9508 29.4508C36.5992 29.8025 36.1223 30 35.625 30H31.875C31.3777 30 30.9008 29.8025 30.5492 29.4508C30.1975 29.0992 30 28.6223 30 28.125V24.375ZM11.25 35.625C11.25 35.1277 11.4475 34.6508 11.7992 34.2992C12.1508 33.9475 12.6277 33.75 13.125 33.75H16.875C17.3723 33.75 17.8492 33.9475 18.2008 34.2992C18.5525 34.6508 18.75 35.1277 18.75 35.625V39.375C18.75 39.8723 18.5525 40.3492 18.2008 40.7008C17.8492 41.0525 17.3723 41.25 16.875 41.25H13.125C12.6277 41.25 12.1508 41.0525 11.7992 40.7008C11.4475 40.3492 11.25 39.8723 11.25 39.375V35.625ZM22.5 35.625C22.5 35.1277 22.6975 34.6508 23.0492 34.2992C23.4008 33.9475 23.8777 33.75 24.375 33.75H28.125C28.6223 33.75 29.0992 33.9475 29.4508 34.2992C29.8025 34.6508 30 35.1277 30 35.625V39.375C30 39.8723 29.8025 40.3492 29.4508 40.7008C29.0992 41.0525 28.6223 41.25 28.125 41.25H24.375C23.8777 41.25 23.4008 41.0525 23.0492 40.7008C22.6975 40.3492 22.5 39.8723 22.5 39.375V35.625Z" fill="#E68615"/>
<path d="M13.125 0C13.6223 0 14.0992 0.197544 14.4508 0.549175C14.8025 0.900806 15 1.37772 15 1.875V3.75H45V1.875C45 1.37772 45.1975 0.900806 45.5492 0.549175C45.9008 0.197544 46.3777 0 46.875 0C47.3723 0 47.8492 0.197544 48.2008 0.549175C48.5525 0.900806 48.75 1.37772 48.75 1.875V3.75H52.5C54.4891 3.75 56.3968 4.54018 57.8033 5.9467C59.2098 7.35322 60 9.26088 60 11.25V52.5C60 54.4891 59.2098 56.3968 57.8033 57.8033C56.3968 59.2098 54.4891 60 52.5 60H7.5C5.51088 60 3.60322 59.2098 2.1967 57.8033C0.790176 56.3968 0 54.4891 0 52.5V11.25C0 9.26088 0.790176 7.35322 2.1967 5.9467C3.60322 4.54018 5.51088 3.75 7.5 3.75H11.25V1.875C11.25 1.37772 11.4475 0.900806 11.7992 0.549175C12.1508 0.197544 12.6277 0 13.125 0V0ZM3.75 15V52.5C3.75 53.4946 4.14509 54.4484 4.84835 55.1516C5.55161 55.8549 6.50544 56.25 7.5 56.25H52.5C53.4946 56.25 54.4484 55.8549 55.1516 55.1516C55.8549 54.4484 56.25 53.4946 56.25 52.5V15H3.75Z" fill="#E68615"/>
</svg>
